<?xml version="1.0" standalone="no"?>
<!DOCTYPE svg PUBLIC "-//W3C//DTD SVG 20010904//EN"
 "http://www.w3.org/TR/2001/REC-SVG-20010904/DTD/svg10.dtd">
<svg version="1.0" xmlns="http://www.w3.org/2000/svg"
 width="512.000000pt" height="512.000000pt" viewBox="0 0 512.000000 512.000000"
 preserveAspectRatio="xMidYMid meet">
<metadata>
Created by potrace 1.16, written by Peter Selinger 2001-2019
</metadata>
<g transform="translate(0.000000,512.000000) scale(0.100000,-0.100000)"
fill="#000000" stroke="none">
<path d="M0 2560 l0 -2560 2560 0 2560 0 0 2560 0 2560 -2560 0 -2560 0 0
-2560z m2810 2129 c620 -70 1172 -407 1529 -934 170 -250 277 -517 338 -845
25 -136 25 -564 0 -700 -87 -464 -285 -848 -602 -1165 -334 -334 -757 -544
-1226 -610 -132 -18 -424 -21 -544 -5 -434 58 -793 214 -1123 488 -414 343
-683 839 -752 1387 -7 50 -12 164 -12 255 0 256 30 443 109 680 177 536 573
991 1077 1239 382 188 783 258 1206 210z"/>
<path d="M2425 4599 c-339 -18 -704 -141 -994 -334 -687 -457 -1029 -1263
-881 -2080 121 -673 597 -1258 1231 -1516 250 -102 501 -150 779 -150 325 0
589 59 875 195 155 75 238 125 363 219 423 319 712 814 786 1346 30 213 18
508 -29 731 -79 375 -316 787 -601 1046 -433 394 -942 575 -1529 543z m185
-1019 c334 -35 547 -203 605 -475 11 -55 15 -156 15 -472 l0 -403 -494 0
c-556 0 -506 8 -506 -83 0 -79 24 -115 104 -157 66 -33 72 -35 199 -38 207 -6
339 36 481 153 56 48 70 55 81 44 11 -13 228 -280 247 -305 17 -23 -197 -172
-324 -225 -277 -114 -665 -111 -908 8 -89 43 -203 151 -242 228 -60 117 -60
123 -65 598 l-5 437 496 0 495 0 11 39 c12 47 1 112 -27 150 -11 14 -46 39
-78 56 -54 27 -71 30 -171 34 -159 5 -251 -26 -403 -133 -36 -24 -68 -43 -72
-40 -7 4 -218 296 -233 321 -9 16 113 102 226 159 100 50 232 91 333 103 99
12 128 12 235 1z"/>
<path d="M2326 3485 c-37 -8 -91 -22 -120 -31 -51 -16 -224 -102 -260 -129
-22 -17 -22 -17 71 -143 l54 -73 32 21 c67 45 195 101 262 115 171 36 359 1
449 -83 68 -64 96 -194 61 -279 -33 -79 7 -73 -517 -73 l-468 0 0 -95 0 -95
624 0 625 0 0 220 c0 162 -4 234 -15 276 -46 177 -180 303 -381 355 -104 27
-320 34 -417 14z"/>
<path d="M1890 2415 c0 -94 0 -95 24 -95 l25 0 -21 -47 c-26 -59 -35 -177 -19
-256 28 -134 125 -255 256 -317 226 -108 599 -105 852 6 84 37 225 133 216
147 -5 9 -103 132 -144 180 -4 5 -28 -8 -55 -28 -116 -89 -251 -134 -424 -142
-182 -8 -313 29 -392 110 -73 75 -88 210 -33 302 l26 45 469 0 470 0 0 95 0
95 -625 0 -625 0 0 -95z"/>
</g>
</svg>
